<svg xmlns="http://www.w3.org/2000/svg" viewBox="0 0 1881.12 204.39"><g id="Layer_2" data-name="Layer 2"><g id="Layer_1-2" data-name="Layer 1"><text/><rect x="1622.44" y="81.81" width="131.04" height="26.54"/><polygon points="1799.15 168.21 1799.15 194.74 1622.44 194.74 1622.44 140.58 1651.43 140.58 1651.43 168.21 1799.15 168.21"/><path d="M171.07,128.05c0,11.07,0,44.74-70.85,44.74-71.33,0-71.33-33.67-71.33-44.74V5.63H0V134c0,20,9.59,36.5,28.49,49,18.05,11.92,42.18,18,71.73,18,29.74,0,53.93-6.13,71.85-18.2C190.58,170.59,200,154.19,200,134V5.63H171.07Z"/><polygon points="413.82 157.26 274.12 5.63 241.77 5.63 241.77 195.8 270.66 195.8 270.66 44.13 410.72 195.8 442.71 195.8 442.71 5.63 413.82 5.63 413.82 157.26"/><path d="M666.23,25.94C645.22,8.73,619.05,0,588.45,0c-30.77,0-57,8.73-78,26C486.92,45.27,475,70.34,475,100.48c0,30.45,11.83,55.61,35.17,74.76,20.84,17,47.17,25.7,78.27,25.7,30.93,0,57.17-8.65,78-25.7,23.34-19.15,35.17-44.31,35.17-74.76C701.64,70.34,689.73,45.27,666.23,25.94Zm-17,126.72c-15.18,13.36-35.64,20.12-60.81,20.12s-45.6-6.72-60.69-20-22.4-30.32-22.4-52.18c0-22.39,8.56-40.08,26.18-54.06,15.39-12.2,34.54-18.38,56.91-18.38,22.22,0,41.37,6.19,56.92,18.4,17.77,14,26.41,31.65,26.41,54C671.78,122.3,664.41,139.33,649.26,152.66Z"/><polygon points="947.05 33.78 1031.73 33.78 1031.73 195.8 1060.62 195.8 1060.62 33.78 1145.3 33.78 1145.3 5.63 947.05 5.63 947.05 33.78"/><path d="M1333.89,128.05c0,11.07,0,44.74-70.85,44.74-71.34,0-71.34-33.67-71.34-44.74V5.63h-28.89V134c0,20,9.59,36.5,28.49,49,18,11.92,42.19,18,71.74,18,29.73,0,53.93-6.13,71.84-18.2,18.51-12.15,27.89-28.55,27.89-48.74V5.63h-28.88Z"/><path d="M1562.75,91.1c-8.52-3.73-19.39-6.21-33.24-7.61-7.4-.83-21.07-1.64-41.78-2.47-23-.94-39.27-3.33-48.5-7.1-11.5-4.64-12.83-11.87-12.83-16.9,0-8.42,4.44-14.6,14-19.45,10.69-5.43,26.7-8.19,47.59-8.19,26.51,0,50.26,5.58,70.58,16.59l4.44,2.41,19.81-21.53-6.3-4.21C1555.26,8.43,1525.14,1.23,1487,1.23c-28.49,0-51,4.89-66.76,14.53-16.85,10.27-25.39,24.77-25.39,43.11,0,19.75,10.43,34.12,30.1,41.54,7.79,3,17.87,5.07,30.8,6.27,7.55.84,20.48,1.65,39.53,2.48,24.51,1.1,41.92,3.86,51.78,8.24,9.53,4.17,14,10.5,14,19.92,0,10.38-5.35,18.38-16.34,24.44-12.11,6.67-30,10.05-53.28,10.05a149.54,149.54,0,0,1-81.21-23.47L1404.9,145l-16.52,23.91,5.31,3.69C1419.8,190.76,1453.82,200,1494.8,200c30.49,0,54.43-5.4,71.16-16.07,17.67-11.25,26.62-27.22,26.62-47.44C1592.58,115.25,1582.26,99.57,1562.75,91.1Z"/><path d="M914.46,98C928.74,88.72,936.2,74.9,936.2,57.4c0-15.9-5.3-28.68-15.76-38C910.2,10.26,896,5.63,878.07,5.63H733.79V33.79h0V56.44h29V33.79H880.76c7.94,0,14,2.17,18.6,6.63s6.72,10.09,6.72,17.33c0,8.06-2.62,14.49-8,19.64s-12.35,7.78-21,7.78H733.79v28.16H879.72c10.38,0,18.26,2.53,24.12,7.73,5.62,5,8.37,11.72,8.37,20.54,0,12.13-3.75,26.05-33,26.05H762.67V141.06H733.79V195.8h145.5c18.79,0,34-4.76,45.06-14.13,11.43-9.66,17.23-22.82,17.23-39.11C941.58,128.15,936.5,109.77,914.46,98Z"/><polygon points="1651.43 32.72 1799 32.72 1799 6.19 1622.44 6.19 1622.44 32.32 1622.44 32.72 1622.44 55.63 1651.43 55.63 1651.43 32.72"/><path d="M1838.27,11.27H1825.7V32.59h-6.42V11.27h-12.57V6.21h31.56Z"/><path d="M1881.12,32.59h-6.41V13.86h-.11L1862,29l-12.58-15.13h-.11V32.59h-6.41V6.21h7.46l11.61,14,11.62-14h7.5Z"/></g></g></svg>