<svg xmlns="http://www.w3.org/2000/svg" viewBox="0 0 2052.25 1091.83"><defs><style>.cls-1{fill:#fff;}.cls-2{fill:none;}</style></defs><g id="Layer_2" data-name="Layer 2"><g id="Layer_1-2" data-name="Layer 1"><text/><rect class="cls-1" x="1796.48" y="969.24" width="131.04" height="26.54"/><polygon class="cls-1" points="1973.19 1055.64 1973.19 1082.17 1796.48 1082.17 1796.48 1028.01 1825.47 1028.01 1825.47 1055.64 1973.19 1055.64"/><path class="cls-1" d="M254.91,1015.48c0,11.07,0,44.74-70.84,44.74-71.34,0-71.34-33.67-71.34-44.74V893.06H83.84v128.37c0,20,9.59,36.5,28.49,49,18,11.92,42.18,18,71.74,18,29.73,0,53.92-6.13,71.84-18.19,18.51-12.16,27.89-28.56,27.89-48.75V893.06H254.91Z"/><polygon class="cls-1" points="497.67 1044.69 357.96 893.06 325.62 893.06 325.62 1083.23 354.5 1083.23 354.5 931.56 494.56 1083.23 526.55 1083.23 526.55 893.06 497.67 893.06 497.67 1044.69"/><path class="cls-1" d="M757.78,913.38c-21-17.22-47.18-26-77.78-26-30.77,0-57,8.73-78,26-23.49,19.32-35.4,44.4-35.4,74.53,0,30.45,11.82,55.61,35.17,74.76,20.84,17.06,47.17,25.7,78.27,25.7,30.93,0,57.17-8.64,78-25.7,23.34-19.15,35.17-44.31,35.17-74.76C793.19,957.78,781.28,932.7,757.78,913.38Zm-17,126.71c-15.18,13.36-35.64,20.13-60.81,20.13s-45.6-6.73-60.7-20-22.39-30.32-22.39-52.18c0-22.39,8.56-40.08,26.18-54.06,15.39-12.2,34.54-18.38,56.91-18.38s41.37,6.19,56.92,18.4c17.77,14,26.41,31.66,26.41,54C763.33,1009.73,756,1026.76,740.81,1040.09Z"/><polygon class="cls-1" points="1078.37 921.22 1163.05 921.22 1163.05 1083.23 1191.94 1083.23 1191.94 921.22 1276.62 921.22 1276.62 893.06 1078.37 893.06 1078.37 921.22"/><path class="cls-1" d="M1490.43,1015.48c0,11.07,0,44.74-70.85,44.74-71.34,0-71.34-33.67-71.34-44.74V893.06h-28.88v128.37c0,20,9.58,36.5,28.49,49,18,11.92,42.18,18,71.73,18,29.73,0,53.93-6.13,71.85-18.19,18.5-12.16,27.89-28.56,27.89-48.75V893.06h-28.89Z"/><path class="cls-1" d="M1727.18,978.53c-8.52-3.72-19.39-6.21-33.24-7.6-7.4-.84-21.07-1.65-41.79-2.48-23-.94-39.27-3.32-48.49-7.09-11.5-4.65-12.83-11.88-12.83-16.9,0-8.43,4.43-14.61,14-19.45,10.69-5.44,26.7-8.2,47.6-8.2,26.51,0,50.25,5.58,70.57,16.6l4.45,2.4,19.8-21.53-6.29-4.21c-21.23-14.21-51.34-21.41-89.51-21.41-28.5,0-51,4.89-66.77,14.53-16.84,10.27-25.38,24.78-25.38,43.11,0,19.75,10.42,34.12,30.09,41.54,7.8,3,17.88,5.07,30.81,6.28,7.54.83,20.48,1.64,39.52,2.47,24.52,1.1,41.92,3.87,51.78,8.25,9.54,4.16,14,10.49,14,19.91,0,10.39-5.35,18.38-16.35,24.44-12.1,6.67-30,10-53.28,10a149.48,149.48,0,0,1-81.21-23.47l-5.26-3.33-16.53,23.91,5.32,3.7c26.11,18.14,60.13,27.34,101.11,27.34,30.48,0,54.42-5.4,71.16-16.06,17.66-11.26,26.62-27.22,26.62-47.45C1757,1002.68,1746.68,987,1727.18,978.53Z"/><path class="cls-1" d="M1015.82,985.43c14.28-9.28,21.73-23.09,21.73-40.6,0-15.89-5.29-28.68-15.75-38-10.24-9.13-24.49-13.76-42.37-13.76H835.15v28.16h0v22.65h29V921.22H982.12c7.94,0,14,2.17,18.6,6.63s6.72,10.09,6.72,17.34c0,8-2.62,14.48-8,19.63s-12.35,7.79-21,7.79H835.15v28.15H981.08c10.38,0,18.26,2.53,24.12,7.73,5.62,5,8.37,11.72,8.37,20.54,0,12.13-3.75,26-33,26H864V1028.5H835.15v54.73h145.5c18.79,0,34-4.75,45.06-14.13,11.43-9.66,17.23-22.81,17.23-39.1C1042.94,1015.58,1037.86,997.2,1015.82,985.43Z"/><polygon class="cls-1" points="1825.47 920.15 1973.03 920.15 1973.03 893.63 1796.48 893.63 1796.48 919.76 1796.48 920.15 1796.48 943.06 1825.47 943.06 1825.47 920.15"/><path class="cls-1" d="M2009.4,898.71h-12.58V920h-6.41V898.71h-12.57v-5.07h31.56Z"/><path class="cls-1" d="M2052.25,920h-6.42V901.29h-.11l-12.57,15.13-12.57-15.13h-.11V920h-6.42V893.64h7.46l11.62,14,11.61-14h7.51Z"/><path class="cls-2" d="M31.56,898.71H19V920H12.57V898.71H0v-5.07H31.56Z"/><path class="cls-2" d="M74.41,920H68V901.29h-.11L55.32,916.42,42.74,901.29h-.11V920H36.22V893.64h7.46l11.61,14,11.62-14h7.5Z"/><path class="cls-1" d="M649.16,695.59v-89C627.94,604,607.82,602.31,588,599c-96.87-16.24-159.17-83.52-169.54-181.26-4.1-38.65-2.51-76.59,7.28-114.27,20.34-78.23,71.75-124.12,149-142.14,23.66-5.52,48.2-7.3,74.2-11.06V61.82h15.34c46.91,0,93.82.2,140.72-.23a41.39,41.39,0,0,0,18.88-5.2q203.32-112.87,406.4.1a41.33,41.33,0,0,0,18.91,5.1c45.64.43,91.28.23,136.91.23h15.62v89.37c18.38,1.64,35.15,2.55,51.76,4.75,50.26,6.63,95.43,24.24,131.51,61.57,31,32.12,44.92,72,51.81,114.68,8.23,50.95,3.88,101.14-15.26,149.37-27.4,69.05-81.79,104-152.14,117.19-21.43,4-43.4,5.27-66.49,8v88.89H1387c-46.06,0-92.13-.2-138.18.24a41.46,41.46,0,0,0-18.88,5.23q-203.32,112.79-406.4-.18a41.39,41.39,0,0,0-18.92-5.06c-46.47-.42-93-.23-139.44-.23ZM1403,578.33c18.84-1.4,37-1.13,54.59-4.35,69.54-12.75,121.58-48,145.87-117.41,10.9-31.19,13.74-63.28,12-96-4.82-91.67-60.72-157.86-150.1-175.8-20.22-4.06-41.27-4.05-62.38-5.95Zm-754.6-1.41V180.61c-9.53,0-18.28-.39-27,.06-70.44,3.59-150,44.42-171.36,131.21-5.39,21.92-9.1,44.9-9,67.38.18,74.37,25,136.29,94.37,173.69C570.46,571.9,607.94,578.51,648.35,576.92ZM795,553.8l217.82-158.48c-.42-.86-.84-1.73-1.27-2.59H675.35C676.34,458.1,713.88,534.37,795,553.8Zm.22-350c-71,19.4-132.05,102.13-119.19,160.5h335.84l.79-2.34Zm312,158.24,1.39,2.51H1378.7c6.58-52.12-37-118.18-88.93-135.38Zm1.28,30.58c-.38,1-.77,1.92-1.15,2.89l182.4,132.74c56.17-23.2,99.58-90.42,87.9-135.63ZM1287.67,562.1c-51.64,14.68-101.82,16.34-150.07-7.81-49.23-24.65-73.4-69.66-94.44-118.65-4.58,47.3-3.25,94.28-3.66,142H1306c-1.3-2.13-1.68-3.41-2.54-4.05C1298.38,569.76,1293.23,566.12,1287.67,562.1ZM1043.46,321.31c43.29-118.58,126.34-157.09,245.61-126.87l16.47-12.14-1-2.39H1041c-.62,2.24-1.23,3.43-1.23,4.63-.1,40.56-.28,81.12,0,121.68C1039.74,311.26,1042.15,316.28,1043.46,321.31ZM1255,219.2l-1.49-3.57c-50.11-10.29-96-2.52-133.65,35.14-27.61,27.57-41.52,62.89-52.55,99.47-.25.82.72,2,1.62,4.3Zm.26,319.17-187.91-136.6C1088.83,498.67,1157.36,566.39,1255.27,538.37ZM876.58,60.76h300.65C1093.38,17.83,960.52,17.83,876.58,60.76Zm1.35,635.62c55.58,42.43,239.93,42.52,298.24,0Zm135.16-369.52c-11.29-79.13-117.21-156.23-178.34-129.78Zm-177.63,233c58.82,27.35,173.1-56.3,176.78-128.71Zm183.76-425.11c-2.6-.69-3.8-1.29-5-1.3-79.42-.1-158.84-.29-238.27.13-4.94,0-9.87,4.94-14.8,7.57.3,1.77.6,3.53.89,5.3,7,1.66,13.9,4.73,20.86,4.76,74.35.35,148.71.23,223.06.19,4.44,0,8.88-.43,13.26-.65Zm0,472.7c-2.06-.6-3.23-1.24-4.4-1.24-79-.09-158-.26-237,.11-5.44,0-10.87,4.13-17.46,6.81,4.31,5.34,6.87,8.51,8.1,10h250.77Zm280.27-456.75-14.34-16.37H1040.39v16.37Zm-259.44,472.7h245l14.27-16.34H1040.05ZM803,105h215.68V89.21H1004c-55.3,0-110.61.45-165.89-.32C824.13,88.7,813.76,93.11,803,105Zm216,547.85h-216c10.39,10.4,19.69,15.87,33.39,15.69,56.14-.77,112.29-.32,168.43-.32h14.16Zm21-548.24H1251c-10.69-10.27-19.9-15.91-33.61-15.71-54.46.78-109,.31-163.42.34-4.49,0-9,.37-13.91.59Zm.32,547.79v15.82h14.47c54.9,0,109.8-.33,164.69.23,13.2.14,21.55-6,31.32-16.05Zm-21.19-152.07c-13.39,15.53-24.79,31.38-38.85,44.32-13.52,12.44-29.79,21.87-45.07,32.78h83.92Zm-.05-320.15H936.41c35,18,60.84,44.66,82.75,80.09Zm18.72,199.59-17.05,33.47,2.33,2.26c24.32-23.4,58-22.84,88.38-35.69-30.85-11.8-64-12.69-90.85-32.54ZM1379.39,90.17h-103l15.32,14.55h87.71ZM1276.2,667.37h102.51V652.14h-86.48Zm-586.07,0h85.75l-15.36-16C737.82,655.22,711,642.16,690.13,667.41Zm86.25-577H690.24c21.26,25,48,11.85,69.75,15.22Zm-73.82,89.67H674.93v58.53ZM675.11,519v58.36h27.45C693.42,558,684.91,539.85,675.11,519Zm676.74,57.34,27.21,2.37V518.19C1369.57,538.5,1361.5,555.75,1351.85,576.37Zm26.91-337.7V178l-26.63,3.66Zm-59.67,384.22h50.84c-12.58-10.81-22.29-21-39.29-15.47Zm51.28-488.23h-51.32l12,15.44C1348.12,155.36,1357.29,144.82,1370.37,134.66ZM720,150.63c-14-14.22-27.37-21.95-45.11-15.54v15.54Zm-45.32,472c19.15,5.28,32.35-1.56,44.38-15.81H674.66Zm82.92-443.15h-26.4l-18.4,30.35,1.7,1.22Zm-.4,398.13c-15.7-11.43-29.3-21.34-42.9-31.26-.48.52-1,1-1.45,1.54,6.07,10,12.13,19.91,18.11,29.72Zm576.88-17.14c7-13.63,13.06-25.61,19.16-37.6l-2-1.43-33.44,26.74ZM1317.7,209.05l33,25.89,2-1.7c-6-11.62-12.09-23.25-18.75-36.07Z"/></g></g></svg>