<svg xmlns="http://www.w3.org/2000/svg" viewBox="0 0 2540.53 322.9"><defs><style>.cls-1{fill:#fff;}</style></defs><g id="Layer_2" data-name="Layer 2"><g id="Layer_1-2" data-name="Layer 1"><text/><rect class="cls-1" x="2281.85" y="144.5" width="131.04" height="26.54"/><polygon class="cls-1" points="2458.56 230.9 2458.56 257.42 2281.85 257.42 2281.85 203.26 2310.84 203.26 2310.84 230.9 2458.56 230.9"/><path class="cls-1" d="M740.28,190.74c0,11.06,0,44.73-70.84,44.73-71.34,0-71.34-33.67-71.34-44.73V68.32H569.21V196.69c0,20,9.59,36.5,28.49,49,18,11.91,42.18,18,71.74,18,29.73,0,53.92-6.14,71.84-18.2,18.51-12.15,27.89-28.55,27.89-48.74V68.32H740.28Z"/><polygon class="cls-1" points="983.04 219.94 843.33 68.32 810.99 68.32 810.99 258.49 839.88 258.49 839.88 106.82 979.93 258.49 1011.93 258.49 1011.93 68.32 983.04 68.32 983.04 219.94"/><path class="cls-1" d="M1243.15,88.63c-21-17.21-47.18-25.94-77.78-25.94-30.77,0-57,8.73-78,26-23.49,19.31-35.4,44.39-35.4,74.52,0,30.46,11.83,55.61,35.17,74.77,20.84,17,47.17,25.7,78.27,25.7,30.93,0,57.18-8.65,78-25.7,23.34-19.16,35.16-44.31,35.16-74.77C1278.56,133,1266.65,108,1243.15,88.63Zm-17,126.71c-15.18,13.36-35.64,20.13-60.81,20.13s-45.6-6.73-60.69-20-22.39-30.31-22.39-52.18c0-22.39,8.55-40.07,26.17-54,15.4-12.2,34.54-18.39,56.91-18.39s41.37,6.19,56.92,18.4c17.77,14,26.41,31.66,26.41,54C1248.7,185,1241.33,202,1226.18,215.34Z"/><polygon class="cls-1" points="1563.74 96.47 1648.42 96.47 1648.42 258.49 1677.31 258.49 1677.31 96.47 1761.99 96.47 1761.99 68.32 1563.74 68.32 1563.74 96.47"/><path class="cls-1" d="M1975.8,190.74c0,11.06,0,44.73-70.85,44.73-71.33,0-71.33-33.67-71.33-44.73V68.32h-28.89V196.69c0,20,9.58,36.5,28.49,49,18,11.91,42.18,18,71.73,18,29.74,0,53.93-6.14,71.85-18.2,18.5-12.15,27.89-28.55,27.89-48.74V68.32H1975.8Z"/><path class="cls-1" d="M2212.55,153.79c-8.52-3.73-19.39-6.22-33.24-7.61-7.4-.84-21.07-1.65-41.79-2.48-23-.94-39.26-3.32-48.49-7.09-11.5-4.65-12.83-11.87-12.83-16.9,0-8.43,4.43-14.61,14-19.45,10.69-5.44,26.71-8.19,47.6-8.19,26.51,0,50.25,5.58,70.57,16.59l4.45,2.41,19.81-21.54-6.3-4.21c-21.23-14.2-51.34-21.41-89.51-21.41-28.5,0-51,4.89-66.77,14.53-16.84,10.28-25.38,24.78-25.38,43.11,0,19.75,10.42,34.12,30.09,41.54,7.8,3,17.88,5.07,30.81,6.28,7.54.84,20.48,1.65,39.52,2.47,24.52,1.1,41.93,3.87,51.78,8.25,9.54,4.17,14,10.49,14,19.91,0,10.39-5.35,18.38-16.35,24.44-12.1,6.67-30,10.05-53.28,10.05A149.52,149.52,0,0,1,2060,211l-5.27-3.34-16.52,23.92,5.31,3.69c26.11,18.15,60.13,27.35,101.11,27.35,30.49,0,54.43-5.41,71.16-16.07,17.66-11.26,26.62-27.22,26.62-47.45C2242.38,177.94,2232.06,162.25,2212.55,153.79Z"/><path class="cls-1" d="M1501.19,160.68c14.28-9.27,21.74-23.09,21.74-40.6,0-15.89-5.3-28.68-15.76-38-10.24-9.13-24.49-13.76-42.37-13.76H1320.52V96.48h0v22.65h29V96.48h117.94c7.94,0,14,2.16,18.6,6.62s6.72,10.1,6.72,17.34c0,8.06-2.62,14.48-8,19.63s-12.35,7.79-21,7.79h-143.3V176h145.93c10.38,0,18.27,2.53,24.12,7.73,5.63,5,8.37,11.73,8.37,20.54,0,12.13-3.75,26.05-33,26.05H1349.41V203.75h-28.89v54.73H1466c18.79,0,34-4.75,45.06-14.13,11.43-9.65,17.23-22.81,17.23-39.1C1528.31,190.83,1523.23,172.46,1501.19,160.68Z"/><polygon class="cls-1" points="2310.84 95.41 2458.41 95.41 2458.41 68.88 2281.85 68.88 2281.85 95.01 2281.85 95.41 2281.85 118.32 2310.84 118.32 2310.84 95.41"/><path class="cls-1" d="M2497.68,74h-12.57V95.28h-6.42V74h-12.57V68.89h31.56Z"/><path class="cls-1" d="M2540.53,95.28h-6.41V76.55H2534l-12.57,15.12-12.58-15.12h-.11V95.28h-6.41V68.89h7.46l11.61,14,11.62-14h7.5Z"/><path class="cls-1" d="M99.26,296.55V258.6c-9.05-1.1-17.62-1.82-26.08-3.24C31.88,248.43,5.32,219.75.9,178.08-.85,161.61-.17,145.43,4,129.37,12.68,96,34.59,76.45,67.51,68.77c10.09-2.35,20.55-3.11,31.63-4.71V26.36h6.54c20,0,40,.08,60-.1A17.71,17.71,0,0,0,173.72,24Q260.4-24.08,347,24.09A17.82,17.82,0,0,0,355,26.26c19.46.18,38.91.1,58.37.1h6.66V64.45c7.83.71,15,1.09,22.06,2,21.43,2.83,40.69,10.34,56.07,26.25,13.23,13.69,19.15,30.71,22.09,48.89,3.51,21.72,1.65,43.12-6.51,63.68-11.68,29.44-34.87,44.32-64.86,50-9.14,1.72-18.5,2.25-28.35,3.39v37.9h-6.74c-19.64,0-39.28-.09-58.91.1a17.6,17.6,0,0,0-8.05,2.23Q260.18,347,173.61,298.8a17.65,17.65,0,0,0-8.06-2.16c-19.82-.18-39.64-.09-59.45-.09Zm321.36-50c8-.59,15.79-.48,23.27-1.85,29.65-5.44,51.83-20.44,62.19-50,4.65-13.3,5.86-27,5.12-40.94-2.05-39.08-25.88-67.3-64-74.95C438.59,77,429.62,77,420.62,76.23ZM98.92,246V77c-4.07,0-7.8-.17-11.51,0C57.38,78.55,23.46,96,14.35,133a121.08,121.08,0,0,0-3.85,28.73c.08,31.7,10.67,58.1,40.23,74C65.71,243.81,81.69,246.63,98.92,246Zm62.52-9.85,92.86-67.57-.54-1.1H110.43C110.85,195.3,126.85,227.82,161.44,236.1Zm.09-149.22c-30.27,8.27-56.3,43.54-50.81,68.42H253.89l.34-1Zm133,67.46c.19.36.39.71.59,1.07H410.28c2.8-22.22-15.76-50.38-37.91-57.72Zm.54,13-.49,1.23,77.76,56.59c23.95-9.89,42.46-38.55,37.48-57.82Zm76.37,72.25c-22,6.26-43.41,7-64-3.33-21-10.5-31.29-29.69-40.26-50.58-2,20.17-1.38,40.2-1.56,60.53h113.6c-.56-.91-.72-1.46-1.08-1.73C376,242.9,373.84,241.35,371.47,239.63ZM267.36,137c18.45-50.55,53.86-67,104.71-54.09l7-5.17-.44-1H266.29a10.59,10.59,0,0,0-.53,2c0,17.29-.11,34.59,0,51.88C265.77,132.7,266.8,134.84,267.36,137Zm90.19-43.53-.64-1.52c-21.36-4.39-40.9-1.08-57,15-11.77,11.75-17.69,26.81-22.4,42.4-.11.35.31.86.69,1.84Zm.11,136.07-80.11-58.24C286.7,212.6,315.92,241.46,357.66,229.52ZM196.22,25.9H324.39C288.64,7.6,232,7.6,196.22,25.9Zm.57,271c23.7,18.09,102.29,18.13,127.15,0Zm57.62-157.53c-4.81-33.74-50-66.61-76-55.33Zm-75.73,99.33c25.08,11.66,73.8-24,75.37-54.87C228.83,202.16,203.91,220.31,178.68,238.68ZM257,57.44a11.5,11.5,0,0,0-2.12-.55c-33.86,0-67.73-.13-101.58.06-2.11,0-4.21,2.1-6.32,3.22.13.75.26,1.51.38,2.26,3,.71,5.93,2,8.9,2,31.69.15,63.39.1,95.09.08,1.9,0,3.79-.18,5.65-.28ZM257,259a8.43,8.43,0,0,0-1.88-.53c-33.68,0-67.36-.12-101,0-2.32,0-4.64,1.77-7.45,2.91,1.84,2.28,2.93,3.63,3.46,4.27H257ZM376.51,64.24l-6.11-7H266.05v7ZM265.91,265.76H370.35l6.08-7H265.91Zm-101.05-221h91.95V38h-6.28c-23.57,0-47.15.19-70.72-.13C173.86,37.81,169.43,39.7,164.86,44.76ZM257,278.32H164.88c4.43,4.43,8.39,6.77,14.23,6.69,23.93-.33,47.87-.14,71.81-.14h6Zm9-233.73h89.93c-4.56-4.38-8.49-6.78-14.33-6.7-23.22.34-46.45.14-69.67.15-1.91,0-3.83.16-5.93.25Zm.13,233.54v6.74h6.17c23.41,0,46.81-.14,70.22.1,5.62.06,9.18-2.56,13.35-6.84Zm-9-64.83c-5.71,6.62-10.57,13.37-16.56,18.89-5.76,5.31-12.7,9.33-19.22,14H257Zm0-136.49H221.72c14.91,7.68,25.94,19,35.28,34.15Zm8,85.09-7.27,14.27,1,1c10.37-10,24.73-9.74,37.68-15.21-13.15-5-27.3-5.41-38.73-13.88ZM410.57,38.44H366.65l6.53,6.2h37.39Zm-44,246.07h43.7V278H373.41C371.33,280,369.39,281.85,366.58,284.51Zm-249.85,0h36.56l-6.56-6.82C137.06,279.34,125.6,273.77,116.73,284.53Zm36.77-246H116.78c9.06,10.63,20.48,5,29.73,6.49ZM122,76.78H110.25v25ZM110.32,221.27v24.89H122Zm288.51,24.45,11.6,1V220.92C406.39,229.57,403,236.93,398.83,245.72Zm11.47-144V75.87L399,77.43Zm-25.43,163.8h21.67c-5.36-4.61-9.5-8.94-16.75-6.59ZM406.73,57.41H384.85c2.28,2.93,3.89,5,5.14,6.58C397.24,66.23,401.15,61.74,406.73,57.41ZM129.45,64.22c-6-6.07-11.66-9.36-19.23-6.63v6.63ZM110.13,265.44c8.17,2.25,13.8-.67,18.92-6.74H110.13ZM145.48,76.51H134.23l-7.85,12.94.73.52Zm-.17,169.73L127,232.92l-.61.65c2.58,4.25,5.17,8.49,7.71,12.67Zm245.94-7.3c3-5.81,5.56-10.92,8.17-16l-.88-.61-14.25,11.4Zm-7-149.82,14.09,11,.85-.72-8-15.38Z"/></g></g></svg>